<?xml version="1.0" encoding="UTF-8" standalone="no"?>
<!-- Created with Inkscape (http://www.inkscape.org/) -->

<svg
   xmlns:dc="http://purl.org/dc/elements/1.1/"
   xmlns:cc="http://creativecommons.org/ns#"
   xmlns:rdf="http://www.w3.org/1999/02/22-rdf-syntax-ns#"
   xmlns:svg="http://www.w3.org/2000/svg"
   xmlns="http://www.w3.org/2000/svg"
   xmlns:sodipodi="http://sodipodi.sourceforge.net/DTD/sodipodi-0.dtd"
   xmlns:inkscape="http://www.inkscape.org/namespaces/inkscape"
   width="290.86319mm"
   height="96.466415mm"
   viewBox="0 0 290.86319 96.466415"
   version="1.1"
   id="svg8"
   inkscape:version="0.92.4 (5da689c313, 2019-01-14)"
   sodipodi:docname="CTL_MechanicResonator_circuit_model.svg">
  <defs
     id="defs2">
    <pattern
       y="0"
       x="0"
       height="6"
       width="6"
       patternUnits="userSpaceOnUse"
       id="EMFhbasepattern" />
  </defs>
  <sodipodi:namedview
     id="base"
     pagecolor="#ffffff"
     bordercolor="#666666"
     borderopacity="1.0"
     inkscape:pageopacity="0.0"
     inkscape:pageshadow="2"
     inkscape:zoom="0.35"
     inkscape:cx="135.25638"
     inkscape:cy="-107.51111"
     inkscape:document-units="mm"
     inkscape:current-layer="layer1"
     showgrid="false"
     fit-margin-top="0"
     fit-margin-left="0"
     fit-margin-right="0"
     fit-margin-bottom="0"
     inkscape:window-width="1920"
     inkscape:window-height="1017"
     inkscape:window-x="-8"
     inkscape:window-y="-8"
     inkscape:window-maximized="1" />
  <metadata
     id="metadata5">
    <rdf:RDF>
      <cc:Work
         rdf:about="">
        <dc:format>image/svg+xml</dc:format>
        <dc:type
           rdf:resource="http://purl.org/dc/dcmitype/StillImage" />
        <dc:title></dc:title>
      </cc:Work>
    </rdf:RDF>
  </metadata>
  <g
     inkscape:label="Layer 1"
     inkscape:groupmode="layer"
     id="layer1"
     transform="translate(56.229208,-15.933458)">
    <path
       id="path818"
       d="M 189.3623,91.815397 V 88.894418 80.80881"
       style="fill:none;stroke:#000000;stroke-width:0.99482596px;stroke-linecap:round;stroke-linejoin:round;stroke-miterlimit:4;stroke-dasharray:none;stroke-opacity:1"
       inkscape:connector-curvature="0" />
    <path
       id="path820"
       d="m 179.01188,83.433458 -1.16416,-1.418156 0.55033,-0.402164 c 1.46049,-1.037159 3.34431,-1.989651 5.0588,-2.518815 2.09548,-0.656161 3.74647,-0.910159 6.01129,-0.910159 3.83113,0 7.34478,1.058326 10.51975,3.15381 0.42333,0.275164 1.35466,0.275164 1.39699,0.338664 0.0212,0.0635 -1.01599,1.037159 -1.65099,1.799153 l -1.14299,1.375823 -0.84666,-0.550328 c -1.37582,-0.910161 -2.58231,-1.460489 -4.12747,-1.904987 -0.95249,-0.275164 -2.47648,-0.55033 -3.11147,-0.55033 -0.33867,0 -0.52917,-0.105831 -0.762,-0.08467 -0.48683,0.02117 -0.254,0 -0.69849,0.02117 -0.4445,0.02117 -0.46567,0.0635 -0.74083,0.0635 -1.24883,0 -3.83114,0.656164 -5.29163,1.354658 -0.84666,0.402164 -2.07432,1.121826 -2.43415,1.439323 -0.14816,0.105831 -0.27516,0.211664 -0.31749,0.211664 -0.0423,0 -0.61383,-0.634995 -1.24883,-1.418156 z"
       style="fill:#ffff00;fill-opacity:1;fill-rule:nonzero;stroke:#ffff00;stroke-width:0.35983065px;stroke-linecap:butt;stroke-linejoin:miter;stroke-miterlimit:4;stroke-dasharray:none;stroke-opacity:1"
       inkscape:connector-curvature="0" />
    <path
       id="path822"
       d="m 175.9639,80.237315 -1.54515,-1.566323 0.65616,-0.402164 c 8.19144,-4.910629 20.61618,-4.910629 28.82879,0.02117 l 0.63499,0.380997 -1.52399,1.502823 c -0.82549,0.825495 -1.54515,1.523989 -1.58748,1.566323 -0.0423,0.04233 -0.3175,-0.08467 -0.635,-0.275164 -1.18532,-0.740828 -2.58231,-1.354659 -4.25447,-1.88382 -6.01129,-1.862654 -12.8904,-1.227659 -18.05503,1.69332 -0.508,0.275164 -0.91016,0.507997 -0.93133,0.507997 -0.0212,0 -0.74083,-0.698495 -1.58749,-1.545156 z"
       style="fill:#00ff00;fill-opacity:1;fill-rule:nonzero;stroke:#00ff00;stroke-width:0.31749764px;stroke-linecap:butt;stroke-linejoin:miter;stroke-miterlimit:4;stroke-dasharray:none;stroke-opacity:1"
       inkscape:connector-curvature="0" />
    <path
       id="path824"
       d="m 189.57397,96.76836 v 12.02258"
       style="fill:none;stroke:#000000;stroke-width:0.99482596px;stroke-linecap:round;stroke-linejoin:round;stroke-miterlimit:4;stroke-dasharray:none;stroke-opacity:1"
       inkscape:connector-curvature="0" />
    <path
       id="path826"
       d="m 194.2941,109.1931 h -9.44026"
       style="fill:none;stroke:#000000;stroke-width:0.99482596px;stroke-linecap:round;stroke-linejoin:round;stroke-miterlimit:4;stroke-dasharray:none;stroke-opacity:1"
       inkscape:connector-curvature="0" />
    <path
       id="path828"
       d="m 191.92345,110.54776 h -4.69896"
       style="fill:none;stroke:#000000;stroke-width:0.99482596px;stroke-linecap:round;stroke-linejoin:round;stroke-miterlimit:4;stroke-dasharray:none;stroke-opacity:1"
       inkscape:connector-curvature="0" />
    <path
       id="path830"
       d="m 190.2513,111.90241 h -1.35466"
       style="fill:none;stroke:#000000;stroke-width:0.99482596px;stroke-linecap:round;stroke-linejoin:round;stroke-miterlimit:4;stroke-dasharray:none;stroke-opacity:1"
       inkscape:connector-curvature="0" />
    <path
       id="path832"
       d="M -30.261401,29.099027 H 125.88394 V 80.80881 H -30.261401 Z"
       style="fill:#a1d7fb;fill-opacity:1;fill-rule:nonzero;stroke:none;stroke-width:0.26458332"
       inkscape:connector-curvature="0" />
    <path
       id="path834"
       d="m -35.701201,48.508717 h 9.2921 25.84431005"
       style="fill:none;stroke:#000000;stroke-width:0.99482596px;stroke-linecap:round;stroke-linejoin:round;stroke-miterlimit:4;stroke-dasharray:none;stroke-opacity:1"
       inkscape:connector-curvature="0" />
    <path
       id="path836"
       d="M 19.606889,48.508717 H 3.033519"
       style="fill:none;stroke:#000000;stroke-width:0.99482596px;stroke-linecap:round;stroke-linejoin:round;stroke-miterlimit:4;stroke-dasharray:none;stroke-opacity:1"
       inkscape:connector-curvature="0" />
    <path
       id="path838"
       d="M 0.15486905,53.546347 V 43.471088"
       style="fill:none;stroke:#000000;stroke-width:0.99482596px;stroke-linecap:round;stroke-linejoin:round;stroke-miterlimit:4;stroke-dasharray:none;stroke-opacity:1"
       inkscape:connector-curvature="0" />
    <path
       id="path840"
       d="M 3.033519,53.546347 V 43.471088"
       style="fill:none;stroke:#000000;stroke-width:0.99482596px;stroke-linecap:round;stroke-linejoin:round;stroke-miterlimit:4;stroke-dasharray:none;stroke-opacity:1"
       inkscape:connector-curvature="0" />
    <path
       id="path842"
       d="M -39.617001,53.313514 V 43.21709"
       style="fill:none;stroke:#000000;stroke-width:0.99482596px;stroke-linecap:round;stroke-linejoin:round;stroke-miterlimit:4;stroke-dasharray:none;stroke-opacity:1"
       inkscape:connector-curvature="0" />
    <path
       id="path844"
       d="M -36.738361,53.313514 V 43.21709"
       style="fill:none;stroke:#000000;stroke-width:0.99482596px;stroke-linecap:round;stroke-linejoin:round;stroke-miterlimit:4;stroke-dasharray:none;stroke-opacity:1"
       inkscape:connector-curvature="0" />
    <path
       id="path846"
       d="m -55.724711,48.466384 h 4.19096 11.62042"
       style="fill:none;stroke:#000000;stroke-width:0.99482596px;stroke-linecap:round;stroke-linejoin:round;stroke-miterlimit:4;stroke-dasharray:none;stroke-opacity:1"
       inkscape:connector-curvature="0" />
    <path
       id="path848"
       d="m 137.56785,37.311633 h 16.40405 45.52916"
       style="fill:none;stroke:#000000;stroke-width:0.99482596px;stroke-linecap:round;stroke-linejoin:round;stroke-miterlimit:4;stroke-dasharray:none;stroke-opacity:1"
       inkscape:connector-curvature="0" />
    <path
       id="path850"
       d="m 137.14453,60.25613 h 16.40404 45.55033"
       style="fill:none;stroke:#000000;stroke-width:0.99482596px;stroke-linecap:round;stroke-linejoin:round;stroke-miterlimit:4;stroke-dasharray:none;stroke-opacity:1"
       inkscape:connector-curvature="0" />
    <path
       id="path852"
       d="M 221.17556,53.059516 V 42.984257"
       style="fill:none;stroke:#000000;stroke-width:0.99482596px;stroke-linecap:round;stroke-linejoin:round;stroke-miterlimit:4;stroke-dasharray:none;stroke-opacity:1"
       inkscape:connector-curvature="0" />
    <path
       id="path854"
       d="M 218.29692,53.059516 V 42.984257"
       style="fill:none;stroke:#000000;stroke-width:0.99482596px;stroke-linecap:round;stroke-linejoin:round;stroke-miterlimit:4;stroke-dasharray:none;stroke-opacity:1"
       inkscape:connector-curvature="0" />
    <path
       id="path856"
       d="m 234.12948,48.233553 h -3.34431 -9.29211"
       style="fill:none;stroke:#000000;stroke-width:0.99482596px;stroke-linecap:round;stroke-linejoin:round;stroke-miterlimit:4;stroke-dasharray:none;stroke-opacity:1"
       inkscape:connector-curvature="0" />
    <path
       id="path858"
       d="m 20.792219,48.635715 h 16.57338"
       style="fill:none;stroke:#000000;stroke-width:0.99482596px;stroke-linecap:round;stroke-linejoin:round;stroke-miterlimit:4;stroke-dasharray:none;stroke-opacity:1"
       inkscape:connector-curvature="0" />
    <path
       id="path860"
       d="M 56.817619,48.635715 H 40.244239"
       style="fill:none;stroke:#000000;stroke-width:0.99482596px;stroke-linecap:round;stroke-linejoin:round;stroke-miterlimit:4;stroke-dasharray:none;stroke-opacity:1"
       inkscape:connector-curvature="0" />
    <path
       id="path862"
       d="M 37.365599,53.673344 V 43.598088"
       style="fill:none;stroke:#000000;stroke-width:0.99482596px;stroke-linecap:round;stroke-linejoin:round;stroke-miterlimit:4;stroke-dasharray:none;stroke-opacity:1"
       inkscape:connector-curvature="0" />
    <path
       id="path864"
       d="M 40.244239,53.673344 V 43.598088"
       style="fill:none;stroke:#000000;stroke-width:0.99482596px;stroke-linecap:round;stroke-linejoin:round;stroke-miterlimit:4;stroke-dasharray:none;stroke-opacity:1"
       inkscape:connector-curvature="0" />
    <path
       id="path866"
       d="m 57.854779,48.635715 h 16.57337"
       style="fill:none;stroke:#000000;stroke-width:0.99482596px;stroke-linecap:round;stroke-linejoin:round;stroke-miterlimit:4;stroke-dasharray:none;stroke-opacity:1"
       inkscape:connector-curvature="0" />
    <path
       id="path868"
       d="M 89.054209,48.635715 H 77.158639"
       style="fill:none;stroke:#000000;stroke-width:0.99482596px;stroke-linecap:round;stroke-linejoin:round;stroke-miterlimit:4;stroke-dasharray:none;stroke-opacity:1"
       inkscape:connector-curvature="0" />
    <path
       id="path870"
       d="M 74.428149,53.673344 V 43.598088"
       style="fill:none;stroke:#000000;stroke-width:0.99482596px;stroke-linecap:round;stroke-linejoin:round;stroke-miterlimit:4;stroke-dasharray:none;stroke-opacity:1"
       inkscape:connector-curvature="0" />
    <path
       id="path872"
       d="M 77.306799,53.673344 V 43.598088"
       style="fill:none;stroke:#000000;stroke-width:0.99482596px;stroke-linecap:round;stroke-linejoin:round;stroke-miterlimit:4;stroke-dasharray:none;stroke-opacity:1"
       inkscape:connector-curvature="0" />
    <path
       id="path874"
       d="m 139.66334,48.762715 c 0,6.265288 -1.37583,11.366415 -3.09031,11.366415 -1.71449,0 -3.11148,-5.101127 -3.11148,-11.366415 0,-6.286453 1.39699,-11.366416 3.11148,-11.366416 1.71448,0 3.09031,5.079963 3.09031,11.366416 z"
       style="fill:#e6e6e6;fill-opacity:1;fill-rule:nonzero;stroke:#000000;stroke-width:0.99482596px;stroke-linecap:butt;stroke-linejoin:miter;stroke-miterlimit:4;stroke-dasharray:none;stroke-opacity:1"
       inkscape:connector-curvature="0" />
    <path
       id="path876"
       d="M 217.68309,48.06422 H 201.13088"
       style="fill:none;stroke:#000000;stroke-width:0.99482596px;stroke-linecap:round;stroke-linejoin:round;stroke-miterlimit:4;stroke-dasharray:none;stroke-opacity:1"
       inkscape:connector-curvature="0" />
    <path
       id="path878"
       d="m 102.98178,48.529884 h 13.05973"
       style="fill:none;stroke:#000000;stroke-width:0.99482596px;stroke-linecap:round;stroke-linejoin:round;stroke-miterlimit:4;stroke-dasharray:none;stroke-opacity:1"
       inkscape:connector-curvature="0" />
    <path
       id="path880"
       d="M 135.38771,48.529884 H 118.81433"
       style="fill:none;stroke:#000000;stroke-width:0.99482596px;stroke-linecap:round;stroke-linejoin:round;stroke-miterlimit:4;stroke-dasharray:none;stroke-opacity:1"
       inkscape:connector-curvature="0" />
    <path
       id="path882"
       d="M 115.93568,53.567514 V 43.492254"
       style="fill:none;stroke:#000000;stroke-width:0.99482596px;stroke-linecap:round;stroke-linejoin:round;stroke-miterlimit:4;stroke-dasharray:none;stroke-opacity:1"
       inkscape:connector-curvature="0" />
    <path
       id="path884"
       d="M 118.81433,53.567514 V 43.492254"
       style="fill:none;stroke:#000000;stroke-width:0.99482596px;stroke-linecap:round;stroke-linejoin:round;stroke-miterlimit:4;stroke-dasharray:none;stroke-opacity:1"
       inkscape:connector-curvature="0" />
    <path
       id="path886"
       d="m 20.199559,48.170053 v 5.757291 c 0,0 -4.91063,0 -4.91063,1.75682 0,3.005643 9.80009,3.534807 9.80009,1.777987 0,-1.777987 -9.80009,-1.248825 -9.80009,1.75682 0,3.005643 9.80009,3.555974 9.80009,1.777987 0,-1.777987 -9.80009,-1.248825 -9.80009,1.777987 0,3.005643 9.80009,3.534807 9.80009,1.75682 0,-1.75682 -9.80009,-1.227659 -9.80009,1.777987 0,3.005645 9.80009,3.534806 9.80009,1.75682 0,-1.75682 -9.80009,-1.227659 -9.80009,1.777986 0,3.005646 9.80009,3.534807 9.80009,1.777987 0,-1.777987 -9.80009,-1.248823 -9.80009,1.75682 0,3.005646 9.80009,3.534807 9.80009,1.777987 0,-1.777987 -9.80009,0 -9.80009,1.75682 0,1.777987 4.91063,1.777987 4.91063,1.777987 v 4.952963"
       style="fill:none;stroke:#000000;stroke-width:0.99482596px;stroke-linecap:butt;stroke-linejoin:miter;stroke-miterlimit:4;stroke-dasharray:none;stroke-opacity:1"
       inkscape:connector-curvature="0" />
    <path
       id="path888"
       d="m 57.431449,48.12772 v 5.757291 c 0,0 -4.88947,0 -4.88947,1.777987 0,3.005642 9.77893,3.534807 9.77893,1.75682 0,-1.75682 -9.77893,-1.227659 -9.77893,1.777987 0,3.005642 9.77893,3.534806 9.77893,1.777986 0,-1.777986 -9.77893,-1.248825 -9.77893,1.75682 0,3.005646 9.77893,3.534807 9.77893,1.777987 0,-1.777987 -9.77893,-1.248825 -9.77893,1.75682 0,3.005646 9.77893,3.555974 9.77893,1.777987 0,-1.777987 -9.77893,-1.248823 -9.77893,1.777987 0,3.005645 9.77893,3.534807 9.77893,1.75682 0,-1.75682 -9.77893,-1.227656 -9.77893,1.777987 0,3.005645 9.77893,3.534807 9.77893,1.75682 0,-1.75682 -9.77893,0 -9.77893,1.777987 0,1.777986 4.88947,1.777986 4.88947,1.777986 v 4.931799"
       style="fill:none;stroke:#000000;stroke-width:0.99482596px;stroke-linecap:butt;stroke-linejoin:miter;stroke-miterlimit:4;stroke-dasharray:none;stroke-opacity:1"
       inkscape:connector-curvature="0" />
    <path
       id="path890"
       d="m 68.628529,64.023767 c 0.0847,-0.35983 0.10583,-0.465661 1.05833,-0.465661 0.29633,0 0.38099,0 0.38099,-0.1905 0,-0.126997 -0.10583,-0.126997 -0.16933,-0.126997 -0.31749,0 -1.14299,0.04233 -1.48165,0.04233 -0.29633,0 -1.03716,-0.04233 -1.33349,-0.04233 -0.0635,0 -0.1905,0 -0.1905,0.211664 0,0.105833 0.0847,0.105833 0.27516,0.105833 0.0212,0 0.21167,0 0.381,0.02117 0.16933,0.02117 0.27517,0.02117 0.27517,0.16933 0,0.02117 0,0.0635 -0.0423,0.1905 l -1.35465,5.397458 c -0.0847,0.402164 -0.10584,0.486831 -0.91017,0.486831 -0.19049,0 -0.27516,0 -0.27516,0.1905 0,0.126997 0.0847,0.126997 0.27516,0.126997 h 4.6778 c 0.23283,0 0.23283,0 0.29633,-0.190497 l 0.80433,-2.180151 c 0.0212,-0.105833 0.0212,-0.127 0.0212,-0.127 0,-0.04233 -0.0212,-0.126997 -0.10583,-0.126997 -0.0847,0 -0.10584,0.0635 -0.16934,0.23283 -0.33866,0.910159 -0.78316,2.074318 -2.51881,2.074318 h -0.95249 -0.23284 c -0.10583,-0.02117 -0.127,-0.04233 -0.127,-0.127 0,-0.02116 0,-0.04233 0.0423,-0.211664 z m 0,0 z"
       style="fill:#000000;fill-opacity:1;fill-rule:nonzero;stroke:none;stroke-width:0.26458332"
       inkscape:connector-curvature="0" />
    <path
       id="path892"
       d="m 72.544329,70.670053 c 0.0847,0.465662 0.29634,1.058326 0.889,1.058326 0.23283,0 0.48683,-0.08467 0.76199,-0.253998 0.10584,-0.0635 0.46567,-0.338666 0.46567,-0.42333 0,-0.04233 -0.0423,-0.127 -0.10584,-0.127 -0.0423,0 -0.0423,0 -0.16933,0.105833 -0.29633,0.275164 -0.61383,0.507995 -0.93132,0.507995 -0.48683,0 -0.48683,-0.825492 -0.48683,-0.973659 0,-0.08467 0,-0.08467 0.0212,-0.232831 0.0212,-0.0635 0.0212,-0.08467 0.0847,-0.148167 0.381,-0.380997 1.73565,-1.672153 1.73565,-2.878645 0,-0.126997 0,-0.613828 -0.48683,-0.613828 -0.57149,0 -1.05832,0.910159 -1.16415,1.121825 -0.29634,0.592662 -0.46567,1.164156 -0.52917,1.523987 -0.127,0.465664 -0.127,0.719661 -0.127,1.058328 -0.0423,0.04233 -0.44449,0.402162 -0.50799,0.465662 -0.10584,0.105833 -0.127,0.105833 -0.127,0.148166 0,0.04233 0.0635,0.126998 0.127,0.126998 0.0423,0 0.23283,-0.169331 0.27516,-0.211664 z m 0.508,-0.804328 c 0.127,-0.698495 0.67733,-2.984479 1.26999,-2.984479 0.16933,0 0.254,0.105834 0.254,0.359831 0,0.08467 0,0.719661 -0.61383,1.587489 -0.35983,0.507995 -0.74082,0.888992 -0.91016,1.037159 z m 0,0 z"
       style="fill:#000000;fill-opacity:1;fill-rule:nonzero;stroke:none;stroke-width:0.26458332"
       inkscape:connector-curvature="0" />
    <path
       id="path894"
       d="m 31.163809,63.621603 c 0.0847,-0.35983 0.127,-0.465661 1.05832,-0.465661 0.3175,0 0.381,0 0.381,-0.1905 0,-0.126997 -0.10583,-0.126997 -0.14816,-0.126997 -0.33867,0 -1.16416,0.04233 -1.48166,0.04233 -0.3175,0 -1.05833,-0.04233 -1.35466,-0.04233 -0.0635,0 -0.1905,0 -0.1905,0.211664 0,0.105833 0.10584,0.105833 0.29633,0.105833 0,0 0.1905,0 0.381,0.02117 0.16933,0.02117 0.254,0.02117 0.254,0.16933 0,0.02117 0,0.0635 -0.0212,0.1905 l -1.37582,5.397461 c -0.0847,0.402161 -0.10583,0.486828 -0.91016,0.486828 -0.16933,0 -0.27517,0 -0.27517,0.1905 0,0.126997 0.10584,0.126997 0.27517,0.126997 h 4.6778 c 0.23283,0 0.23283,0 0.29633,-0.190497 l 0.80433,-2.180154 c 0.0423,-0.105833 0.0423,-0.127 0.0423,-0.127 0,-0.04233 -0.0423,-0.126997 -0.10583,-0.126997 -0.10584,0 -0.10584,0.0635 -0.16934,0.23283 -0.35983,0.910162 -0.80432,2.074318 -2.53998,2.074318 h -0.95249 -0.21167 c -0.10583,-0.02117 -0.14816,-0.04233 -0.14816,-0.126998 0,-0.02117 0,-0.04233 0.0423,-0.211666 z m 0,0 z"
       style="fill:#000000;fill-opacity:1;fill-rule:nonzero;stroke:none;stroke-width:0.26458332"
       inkscape:connector-curvature="0" />
    <path
       id="path896"
       d="m 35.079609,70.267889 c 0.0847,0.465664 0.3175,1.058326 0.91016,1.058326 0.21167,0 0.46567,-0.08467 0.74083,-0.253998 0.10583,-0.0635 0.46566,-0.338664 0.46566,-0.42333 0,-0.04233 -0.0423,-0.127 -0.10583,-0.127 -0.0212,0 -0.0423,0 -0.14817,0.105833 -0.29633,0.275164 -0.61382,0.507995 -0.93132,0.507995 -0.48683,0 -0.48683,-0.825493 -0.48683,-0.973659 0,-0.08467 0,-0.08467 0,-0.232831 0.0212,-0.0635 0.0212,-0.08467 0.10583,-0.148167 0.381,-0.380997 1.71449,-1.672153 1.71449,-2.878645 0,-0.126997 0,-0.613828 -0.46567,-0.613828 -0.59266,0 -1.05832,0.910159 -1.16415,1.121825 -0.3175,0.592662 -0.48683,1.164159 -0.55033,1.52399 -0.10584,0.465661 -0.10584,0.719661 -0.10584,1.058325 -0.0423,0.04233 -0.46566,0.402164 -0.52916,0.465662 -0.10583,0.105833 -0.127,0.105833 -0.127,0.148166 0,0.04233 0.0635,0.127 0.127,0.127 0.0635,0 0.23283,-0.169333 0.29633,-0.211666 z m 0.508,-0.804328 c 0.127,-0.698495 0.67733,-2.984479 1.29115,-2.984479 0.14817,0 0.254,0.105834 0.254,0.359831 0,0.08467 0,0.719661 -0.61383,1.587489 -0.38099,0.507998 -0.74082,0.888995 -0.93132,1.037159 z m 0,0 z"
       style="fill:#000000;fill-opacity:1;fill-rule:nonzero;stroke:none;stroke-width:0.26458332"
       inkscape:connector-curvature="0" />
    <path
       id="path898"
       d="m 120.90981,33.078331 c 0,-0.04233 -0.0212,-0.126999 -0.127,-0.126999 -0.0212,0 -0.0423,0.02117 -0.14816,0.126999 l -0.71966,0.804327 c -0.0847,-0.148165 -0.55034,-0.931326 -1.69332,-0.931326 -2.30716,0 -4.6143,2.285983 -4.6143,4.656632 0,1.693321 1.20649,2.815146 2.79398,2.815146 0.88899,0 1.67215,-0.402164 2.22248,-0.888994 0.95249,-0.825493 1.12182,-1.75682 1.12182,-1.799153 0,-0.105832 -0.10583,-0.105832 -0.127,-0.105832 -0.0635,0 -0.10583,0.02117 -0.127,0.105832 -0.10583,0.296331 -0.33866,1.037159 -1.05832,1.629821 -0.6985,0.55033 -1.33349,0.740828 -1.86265,0.740828 -0.93133,0 -2.03199,-0.529162 -2.03199,-2.116651 0,-0.613828 0.21167,-2.264816 1.24882,-3.471307 0.635,-0.719662 1.58749,-1.227658 2.51882,-1.227658 1.03716,0 1.65099,0.783161 1.65099,1.968486 0,0.42333 -0.0423,0.42333 -0.0423,0.529162 0,0.105833 0.12699,0.105833 0.14816,0.105833 0.127,0 0.127,-0.02117 0.1905,-0.211665 z m 0,0 z"
       style="fill:#000000;fill-opacity:1;fill-rule:nonzero;stroke:none;stroke-width:0.26458332"
       inkscape:connector-curvature="0" />
    <path
       id="path900"
       d="m 121.29081,40.761774 c 0.0847,0.465663 0.29633,1.058326 0.91016,1.058326 0.23283,0 0.48683,-0.08467 0.76199,-0.253999 0.10584,-0.0635 0.48683,-0.338664 0.48683,-0.42333 0,-0.04233 -0.0635,-0.126999 -0.127,-0.126999 -0.0212,0 -0.0423,0 -0.14816,0.08467 -0.3175,0.275165 -0.635,0.529163 -0.9525,0.529163 -0.50799,0 -0.50799,-0.84666 -0.50799,-0.994826 0,-0.08467 0,-0.08467 0.0212,-0.232832 0.0212,-0.0635 0.0212,-0.08467 0.10583,-0.169332 0.38099,-0.35983 1.73565,-1.672154 1.73565,-2.920978 0,-0.105833 0,-0.634995 -0.46566,-0.634995 -0.59266,0 -1.07949,0.952493 -1.20649,1.142991 -0.29633,0.613829 -0.46566,1.206491 -0.52916,1.566322 -0.127,0.48683 -0.127,0.719661 -0.127,1.079492 -0.0423,0.04233 -0.46567,0.42333 -0.52917,0.465663 -0.10583,0.105833 -0.127,0.105833 -0.127,0.169332 0,0.04233 0.0635,0.126999 0.127,0.126999 0.0423,0 0.254,-0.190498 0.29633,-0.232831 z m 0.508,-0.825494 c 0.12699,-0.719661 0.69849,-3.047977 1.31232,-3.047977 0.14816,0 0.254,0.126999 0.254,0.380997 0,0.08467 0,0.719661 -0.635,1.608655 -0.35983,0.507996 -0.76199,0.888993 -0.93132,1.058325 z m 0,0 z"
       style="fill:#000000;fill-opacity:1;fill-rule:nonzero;stroke:none;stroke-width:0.26458332"
       inkscape:connector-curvature="0" />
    <path
       id="path902"
       d="m 78.640289,33.459328 c 0,-0.04233 -0.0212,-0.126999 -0.10583,-0.126999 -0.0423,0 -0.0635,0.02117 -0.16933,0.126999 l -0.71967,0.804328 c -0.0847,-0.148166 -0.55032,-0.931327 -1.69332,-0.931327 -2.30715,0 -4.59313,2.264817 -4.59313,4.656632 0,1.693321 1.20649,2.815146 2.77281,2.815146 0.889,0 1.67216,-0.402164 2.22249,-0.888993 0.95249,-0.825494 1.12182,-1.756821 1.12182,-1.799154 0,-0.105832 -0.10583,-0.105832 -0.127,-0.105832 -0.0635,0 -0.10583,0.02117 -0.127,0.105832 -0.10583,0.296332 -0.33866,1.037159 -1.03715,1.629822 -0.71967,0.550329 -1.35466,0.740828 -1.88382,0.740828 -0.93133,0 -2.01082,-0.529163 -2.01082,-2.137818 0,-0.592662 0.1905,-2.24365 1.22766,-3.450141 0.63499,-0.719662 1.58748,-1.227658 2.51881,-1.227658 1.03716,0 1.65099,0.783161 1.65099,1.968486 0,0.42333 -0.0423,0.42333 -0.0423,0.529162 0,0.105833 0.127,0.105833 0.14817,0.105833 0.127,0 0.127,-0.02117 0.1905,-0.211665 z m 0,0 z"
       style="fill:#000000;fill-opacity:1;fill-rule:nonzero;stroke:none;stroke-width:0.26458332"
       inkscape:connector-curvature="0" />
    <path
       id="path904"
       d="m 79.021289,41.142771 c 0.0847,0.465663 0.29633,1.058326 0.91016,1.058326 0.23283,0 0.48683,-0.08467 0.76199,-0.253998 0.10583,-0.0635 0.48683,-0.338665 0.48683,-0.42333 0,-0.04233 -0.0635,-0.127 -0.127,-0.127 -0.0212,0 -0.0423,0 -0.14816,0.08467 -0.3175,0.275165 -0.635,0.529163 -0.95249,0.529163 -0.508,0 -0.508,-0.84666 -0.508,-0.994826 0,-0.08467 0,-0.08467 0.0212,-0.232831 0.0212,-0.0635 0.0212,-0.08467 0.10584,-0.169332 0.381,-0.359831 1.75682,-1.672155 1.75682,-2.920979 0,-0.105832 0,-0.634995 -0.48683,-0.634995 -0.59266,0 -1.07949,0.931326 -1.18533,1.142991 -0.3175,0.613829 -0.48683,1.206492 -0.55033,1.566322 -0.127,0.48683 -0.127,0.719662 -0.127,1.079492 -0.0423,0.04233 -0.46566,0.42333 -0.52916,0.465663 -0.10583,0.105833 -0.127,0.105833 -0.127,0.169332 0,0.04233 0.0635,0.126999 0.127,0.126999 0.0635,0 0.254,-0.190498 0.29633,-0.232831 z m 0.50799,-0.825494 c 0.127,-0.719661 0.6985,-3.047977 1.31233,-3.047977 0.14816,0 0.254,0.126999 0.254,0.380997 0,0.0635 0,0.719662 -0.635,1.608655 -0.35983,0.507996 -0.74083,0.888993 -0.93133,1.058325 z m 0,0 z"
       style="fill:#000000;fill-opacity:1;fill-rule:nonzero;stroke:none;stroke-width:0.26458332"
       inkscape:connector-curvature="0" />
    <path
       id="path906"
       d="m 41.895229,33.861492 c 0,-0.02117 -0.0212,-0.105833 -0.10583,-0.105833 -0.0423,0 -0.0423,0.02117 -0.16934,0.126999 l -0.69849,0.783161 c -0.10583,-0.148165 -0.5715,-0.91016 -1.71449,-0.91016 -2.28598,0 -4.59313,2.264817 -4.59313,4.656633 0,1.672154 1.20649,2.815145 2.77281,2.815145 0.88899,0 1.67216,-0.402163 2.22249,-0.888993 0.95249,-0.846661 1.14299,-1.777987 1.14299,-1.799153 0,-0.126999 -0.127,-0.126999 -0.14817,-0.126999 -0.0635,0 -0.10583,0.04233 -0.127,0.126999 -0.0847,0.275164 -0.33866,1.015992 -1.03716,1.608654 -0.69849,0.571496 -1.35465,0.740828 -1.88382,0.740828 -0.91016,0 -2.01081,-0.529163 -2.01081,-2.116651 0,-0.592662 0.21166,-2.24365 1.24882,-3.450141 0.61383,-0.740828 1.58749,-1.248824 2.49765,-1.248824 1.05832,0 1.65099,0.783161 1.65099,1.989652 0,0.402164 -0.0212,0.402164 -0.0212,0.529163 0,0.08467 0.10583,0.08467 0.14816,0.08467 0.127,0 0.127,0 0.1905,-0.211665 z m 0,0 z"
       style="fill:#000000;fill-opacity:1;fill-rule:nonzero;stroke:none;stroke-width:0.26458332"
       inkscape:connector-curvature="0" />
    <path
       id="path908"
       d="m 42.276219,41.544935 c 0.0847,0.465663 0.3175,1.058325 0.93133,1.058325 0.21167,0 0.46566,-0.0635 0.74083,-0.253998 0.127,-0.0635 0.48683,-0.338664 0.48683,-0.402163 0,-0.0635 -0.0423,-0.148166 -0.10583,-0.148166 -0.0423,0 -0.0423,0 -0.16933,0.105833 -0.29633,0.275164 -0.61383,0.507996 -0.9525,0.507996 -0.48683,0 -0.48683,-0.825494 -0.48683,-0.97366 0,-0.105832 0,-0.105832 0.0212,-0.232831 0,-0.0635 0,-0.08467 0.0847,-0.169332 0.381,-0.380997 1.75683,-1.693321 1.75683,-2.920979 0,-0.126999 0,-0.634995 -0.48683,-0.634995 -0.59267,0 -1.0795,0.931327 -1.18533,1.142992 -0.3175,0.613828 -0.48683,1.185324 -0.55033,1.566321 -0.10583,0.465664 -0.10583,0.719662 -0.10583,1.079492 -0.0635,0.04233 -0.46567,0.402164 -0.52917,0.465664 -0.127,0.105832 -0.127,0.105832 -0.127,0.148165 0,0.0635 0.0635,0.126999 0.127,0.126999 0.0423,0 0.23283,-0.169332 0.27517,-0.211665 z m 0.52917,-0.804328 c 0.127,-0.740827 0.67733,-3.047977 1.29116,-3.047977 0.16933,0 0.25399,0.105833 0.25399,0.359831 0,0.08467 0,0.740828 -0.61383,1.608655 -0.38099,0.529162 -0.76199,0.910159 -0.93132,1.079491 z m 0,0 z"
       style="fill:#000000;fill-opacity:1;fill-rule:nonzero;stroke:none;stroke-width:0.26458332"
       inkscape:connector-curvature="0" />
    <path
       id="path910"
       d="m 5.023169,34.305989 c 0,-0.04233 -0.0212,-0.105833 -0.10583,-0.105833 -0.0423,0 -0.0635,0 -0.16934,0.126999 l -0.69849,0.783161 c -0.10583,-0.148166 -0.5715,-0.91016 -1.71449,-0.91016 -2.30714995,0 -4.59313,2.264817 -4.59313,4.635466 0,1.69332 1.20649,2.815145 2.77281005,2.815145 0.88899995,0 1.67214995,-0.402163 2.22248995,-0.867826 0.95249,-0.846661 1.12182,-1.777987 1.12182,-1.82032 0,-0.105833 -0.10583,-0.105833 -0.127,-0.105833 -0.0635,0 -0.10583,0.04233 -0.127,0.105833 -0.10583,0.296331 -0.33866,1.037159 -1.03716,1.629821 -0.71966,0.571496 -1.35465,0.740828 -1.88381995,0.740828 -0.93132,0 -2.01082005,-0.529163 -2.01082005,-2.116651 0,-0.592662 0.21167,-2.264817 1.22766005,-3.471308 0.635,-0.719661 1.58748995,-1.227657 2.51881995,-1.227657 1.03716,0 1.65098,0.783161 1.65098,1.968485 0,0.42333 -0.0212,0.42333 -0.0212,0.529163 0,0.105832 0.10584,0.105832 0.127,0.105832 0.127,0 0.127,-0.02117 0.21167,-0.211665 z m 0,0 z"
       style="fill:#000000;fill-opacity:1;fill-rule:nonzero;stroke:none;stroke-width:0.26458332"
       inkscape:connector-curvature="0" />
    <path
       id="path912"
       d="m 5.404159,41.989432 c 0.0847,0.465664 0.29634,1.058325 0.91017,1.058325 0.23283,0 0.48683,-0.08467 0.76199,-0.253997 0.10583,-0.0635 0.48683,-0.338664 0.48683,-0.423331 0,-0.04233 -0.0423,-0.126999 -0.127,-0.126999 -0.0212,0 -0.0423,0 -0.14817,0.105832 -0.31749,0.275164 -0.63499,0.507998 -0.95249,0.507998 -0.508,0 -0.508,-0.846662 -0.508,-0.973661 0,-0.105833 0,-0.105833 0.0212,-0.253998 0.0212,-0.0635 0.0212,-0.08467 0.10584,-0.148166 0.381,-0.380997 1.75682,-1.69332 1.75682,-2.942144 0,-0.105833 0,-0.613829 -0.48683,-0.613829 -0.59266,0 -1.07949,0.931326 -1.18533,1.142991 -0.31749,0.613829 -0.48683,1.185325 -0.55033,1.545156 -0.12699,0.486829 -0.12699,0.740827 -0.12699,1.079492 -0.0423,0.0635 -0.46567,0.42333 -0.52917,0.465663 -0.10583,0.126999 -0.127,0.126999 -0.127,0.169332 0,0.04233 0.0635,0.127 0.127,0.127 0.0635,0 0.254,-0.169333 0.29633,-0.232833 z m 0.508,-0.825494 c 0.127,-0.719662 0.6985,-3.026811 1.31232,-3.026811 0.14817,0 0.254,0.105832 0.254,0.35983 0,0.08467 0,0.719662 -0.63499,1.608655 -0.35983,0.507997 -0.74083,0.91016 -0.93133,1.058326 z m 0,0 z"
       style="fill:#000000;fill-opacity:1;fill-rule:nonzero;stroke:none;stroke-width:0.26458332"
       inkscape:connector-curvature="0" />
    <path
       id="path914"
       d="m 24.877349,93.889715 c -1.46048,0 -3.89463,-0.507998 -4.1698,-2.603482 -0.0635,-0.127 -0.23283,-0.190497 -0.42333,-0.190497 -0.46566,0 -0.46566,0.211664 -0.46566,0.402161 0.0423,1.88382 1.94732,3.682974 4.78363,3.70414 l 8.63594,-0.02117 c 1.48165,-0.02117 2.66698,-0.02117 3.9158,0.740828 1.12182,0.656161 1.20649,1.418156 1.20649,1.841486 0.0635,0.105834 0.23283,0.169331 0.48683,0.148164 0.33867,0 0.33867,-0.08466 0.40217,-0.29633 0.0847,-1.26999 1.43932,-2.222482 3.25964,-2.434148 0.42333,-0.04233 0.52916,-0.04233 1.88382,-0.04233 l 7.45061,-0.02117 c 1.58749,0 2.77281,0 4.1698,-0.952492 1.18533,-0.804328 1.56632,-2.137818 1.56632,-2.772813 -0.0212,-0.1905 -0.0212,-0.402164 -0.48683,-0.402164 -0.35983,0 -0.35983,0.127 -0.40216,0.317498 -0.10583,1.206492 -1.33349,2.180151 -3.21731,2.434148 -0.35983,0.0635 -0.40216,0.0635 -1.77799,0.0635 l -7.91627,0.02117 c -1.69332,0.02117 -2.34948,0.16933 -3.57714,0.783161 -0.762,0.423331 -1.10066,0.973659 -1.39699,1.523987 -0.91016,-1.587487 -2.68815,-2.285982 -4.88946,-2.264815 z m 0,0 z"
       style="fill:#000000;fill-opacity:1;fill-rule:nonzero;stroke:none;stroke-width:0.26458332"
       inkscape:connector-curvature="0" />
    <path
       id="path916"
       d="m 202.9512,48.889715 c 0,6.286452 -1.39699,11.366415 -3.11147,11.366415 -1.71449,0 -3.09031,-5.079963 -3.09031,-11.366415 0,-6.265289 1.37582,-11.366417 3.09031,-11.366417 1.71448,0 3.11147,5.101128 3.11147,11.366417 z"
       style="fill:#ffffff;fill-opacity:1;fill-rule:nonzero;stroke:#000000;stroke-width:0.99482596px;stroke-linecap:butt;stroke-linejoin:miter;stroke-miterlimit:4;stroke-dasharray:none;stroke-opacity:1"
       inkscape:connector-curvature="0" />
    <path
       id="path918"
       d="m 57.431449,78.903826 v 6.730949"
       style="fill:none;stroke:#000000;stroke-width:0.99482596px;stroke-linecap:round;stroke-linejoin:round;stroke-miterlimit:4;stroke-dasharray:none;stroke-opacity:1"
       inkscape:connector-curvature="0" />
    <path
       id="path920"
       d="m 62.151579,85.634775 h -9.44026"
       style="fill:none;stroke:#000000;stroke-width:0.99482596px;stroke-linecap:round;stroke-linejoin:round;stroke-miterlimit:4;stroke-dasharray:none;stroke-opacity:1"
       inkscape:connector-curvature="0" />
    <path
       id="path922"
       d="m 59.780929,86.989431 h -4.69897"
       style="fill:none;stroke:#000000;stroke-width:0.99482596px;stroke-linecap:round;stroke-linejoin:round;stroke-miterlimit:4;stroke-dasharray:none;stroke-opacity:1"
       inkscape:connector-curvature="0" />
    <path
       id="path924"
       d="m 58.108779,88.322921 h -1.35466"
       style="fill:none;stroke:#000000;stroke-width:0.99482596px;stroke-linecap:round;stroke-linejoin:round;stroke-miterlimit:4;stroke-dasharray:none;stroke-opacity:1"
       inkscape:connector-curvature="0" />
    <path
       id="path926"
       d="m 20.220719,78.903826 v 6.730949"
       style="fill:none;stroke:#000000;stroke-width:0.99482596px;stroke-linecap:round;stroke-linejoin:round;stroke-miterlimit:4;stroke-dasharray:none;stroke-opacity:1"
       inkscape:connector-curvature="0" />
    <path
       id="path928"
       d="m 24.940849,85.634775 h -9.44026"
       style="fill:none;stroke:#000000;stroke-width:0.99482596px;stroke-linecap:round;stroke-linejoin:round;stroke-miterlimit:4;stroke-dasharray:none;stroke-opacity:1"
       inkscape:connector-curvature="0" />
    <path
       id="path930"
       d="m 22.591369,86.989431 h -4.72013"
       style="fill:none;stroke:#000000;stroke-width:0.99482596px;stroke-linecap:round;stroke-linejoin:round;stroke-miterlimit:4;stroke-dasharray:none;stroke-opacity:1"
       inkscape:connector-curvature="0" />
    <path
       id="path932"
       d="m 20.898049,88.322921 h -1.35466"
       style="fill:none;stroke:#000000;stroke-width:0.99482596px;stroke-linecap:round;stroke-linejoin:round;stroke-miterlimit:4;stroke-dasharray:none;stroke-opacity:1"
       inkscape:connector-curvature="0" />
    <path
       id="path934"
       d="m -16.460841,48.508717 v 5.757291 c 0,0 -4.88946,0 -4.88946,1.75682 0,3.005643 9.77892,3.555974 9.77892,1.777987 0,-1.777987 -9.77892,-1.248825 -9.77892,1.777987 0,3.005643 9.77892,3.534807 9.77892,1.75682 0,-1.75682 -9.77892,-1.227659 -9.77892,1.777987 0,3.005643 9.77892,3.534807 9.77892,1.75682 0,-1.75682 -9.77892,-1.227659 -9.77892,1.777987 0,3.005645 9.77892,3.534806 9.77892,1.777986 0,-1.777986 -9.77892,-1.248822 -9.77892,1.75682 0,3.005646 9.77892,3.534807 9.77892,1.777987 0,-1.777987 -9.77892,-1.248822 -9.77892,1.75682 0,3.026813 9.77892,3.555974 9.77892,1.777987 0,-1.777987 -9.77892,0 -9.77892,1.777987 0,1.75682 4.88946,1.75682 4.88946,1.75682 v 4.952963"
       style="fill:none;stroke:#000000;stroke-width:0.99482596px;stroke-linecap:butt;stroke-linejoin:miter;stroke-miterlimit:4;stroke-dasharray:none;stroke-opacity:1"
       inkscape:connector-curvature="0" />
    <path
       id="path936"
       d="m -16.460841,79.030823 v 6.730952"
       style="fill:none;stroke:#000000;stroke-width:0.99482596px;stroke-linecap:round;stroke-linejoin:round;stroke-miterlimit:4;stroke-dasharray:none;stroke-opacity:1"
       inkscape:connector-curvature="0" />
    <path
       id="path938"
       d="m -11.740711,85.761775 h -9.44026"
       style="fill:none;stroke:#000000;stroke-width:0.99482596px;stroke-linecap:round;stroke-linejoin:round;stroke-miterlimit:4;stroke-dasharray:none;stroke-opacity:1"
       inkscape:connector-curvature="0" />
    <path
       id="path940"
       d="m -14.111361,87.095265 h -4.69896"
       style="fill:none;stroke:#000000;stroke-width:0.99482596px;stroke-linecap:round;stroke-linejoin:round;stroke-miterlimit:4;stroke-dasharray:none;stroke-opacity:1"
       inkscape:connector-curvature="0" />
    <path
       id="path942"
       d="m -15.783511,88.449921 h -1.35466"
       style="fill:none;stroke:#000000;stroke-width:0.99482596px;stroke-linecap:round;stroke-linejoin:round;stroke-miterlimit:4;stroke-dasharray:none;stroke-opacity:1"
       inkscape:connector-curvature="0" />
    <path
       id="path944"
       d="m 92.589019,48.593384 c 0,0.317497 -0.254,0.592661 -0.59266,0.592661 -0.33867,0 -0.61383,-0.275164 -0.61383,-0.592661 0,-0.359831 0.27516,-0.634997 0.61383,-0.634997 0.33866,0 0.59266,0.275166 0.59266,0.634997 z m 0,0 z"
       style="fill:#000000;fill-opacity:1;fill-rule:nonzero;stroke:none;stroke-width:0.26458332"
       inkscape:connector-curvature="0" />
    <path
       id="path946"
       d="m 96.356659,48.529884 c 0,0.338664 -0.27516,0.613828 -0.59266,0.613828 -0.35983,0 -0.61383,-0.275164 -0.61383,-0.613828 0,-0.338664 0.254,-0.613831 0.61383,-0.613831 0.3175,0 0.59266,0.275167 0.59266,0.613831 z m 0,0 z"
       style="fill:#000000;fill-opacity:1;fill-rule:nonzero;stroke:none;stroke-width:0.26458332"
       inkscape:connector-curvature="0" />
    <path
       id="path948"
       d="m 99.954969,48.487551 c 0,0.317497 -0.27517,0.592661 -0.59267,0.592661 -0.35983,0 -0.63499,-0.275164 -0.63499,-0.592661 0,-0.359831 0.27516,-0.613828 0.63499,-0.613828 0.3175,0 0.59267,0.253997 0.59267,0.613828 z m 0,0 z"
       style="fill:#000000;fill-opacity:1;fill-rule:nonzero;stroke:none;stroke-width:0.26458332"
       inkscape:connector-curvature="0" />
    <path
       id="path950"
       d="m 149.1036,38.327625 h 50.14346 v 20.80668 H 149.1036 Z"
       style="fill:#ffffff;fill-opacity:1;fill-rule:nonzero;stroke:#ffffff;stroke-width:0.97365946px;stroke-linecap:butt;stroke-linejoin:miter;stroke-miterlimit:4;stroke-dasharray:none;stroke-opacity:1"
       inkscape:connector-curvature="0" />
    <path
       id="path952"
       d="M 189.38347,69.548228 V 67.05058 60.086797"
       style="fill:none;stroke:#000000;stroke-width:0.93132645px;stroke-linecap:butt;stroke-linejoin:round;stroke-miterlimit:4;stroke-dasharray:none;stroke-opacity:1"
       inkscape:connector-curvature="0" />
    <path
       id="path954"
       d="m 175.79457,69.654061 h 27.1778 v 2.391815 h -27.1778 z"
       style="fill:#ffff00;fill-opacity:1;fill-rule:nonzero;stroke:#ffff00;stroke-width:0.55032927px;stroke-linecap:butt;stroke-linejoin:miter;stroke-miterlimit:4;stroke-dasharray:none;stroke-opacity:1"
       inkscape:connector-curvature="0" />
    <path
       id="path956"
       d="m 182.99118,93.551051 c 0,3.471306 2.85748,6.286452 6.39229,6.286452 3.51364,0 6.37112,-2.815146 6.37112,-6.286452 0,-3.47131 -2.85748,-6.286456 -6.37112,-6.286456 -3.53481,0 -6.39229,2.815146 -6.39229,6.286456 z"
       style="fill:#ffffff;fill-opacity:1;fill-rule:nonzero;stroke:#000000;stroke-width:0.99482596px;stroke-linecap:butt;stroke-linejoin:miter;stroke-miterlimit:4;stroke-dasharray:none;stroke-opacity:1"
       inkscape:connector-curvature="0" />
    <path
       id="path958"
       d="m 177.93239,85.465442 c -1.77799,-0.634995 -3.25964,-1.164156 -3.28081,-1.164156 -0.0423,-0.02117 -0.127,-0.867828 -0.4445,-4.275635 -0.21166,-2.349484 -0.38099,-4.254471 -0.38099,-4.254471 0,0 4.84713,7.069617 7.15428,10.456257 0.14816,0.211666 0.25399,0.380997 0.23283,0.380997 0,0 -1.48166,-0.507995 -3.28081,-1.142992 z"
       style="fill:#ffffff;fill-opacity:1;fill-rule:nonzero;stroke:#ffffff;stroke-width:0.10583255px;stroke-linecap:butt;stroke-linejoin:miter;stroke-miterlimit:4;stroke-dasharray:none;stroke-opacity:1"
       inkscape:connector-curvature="0" />
    <path
       id="path960"
       d="m 201.13088,84.809281 c 1.79916,-0.634995 3.28081,-1.164159 3.30198,-1.185326 0.0212,0 0.10583,-0.867825 0.42333,-4.254468 0.21166,-2.349481 0.40216,-4.254468 0.381,-4.254468 0,0 -4.82597,7.069616 -7.13312,10.456256 -0.14816,0.211664 -0.25399,0.380998 -0.25399,0.380998 0.0212,0 1.50282,-0.529164 3.2808,-1.142992 z"
       style="fill:#ffffff;fill-opacity:1;fill-rule:nonzero;stroke:#ffffff;stroke-width:0.10583255px;stroke-linecap:butt;stroke-linejoin:miter;stroke-miterlimit:4;stroke-dasharray:none;stroke-opacity:1"
       inkscape:connector-curvature="0" />
    <path
       id="path962"
       d="m 204.17886,81.507304 c -0.0847,-0.211664 -0.127,-0.211664 -0.35983,-0.211664 h -1.60866 v 0.296331 h 0.23284 c 0.74083,0 0.76199,0.105833 0.76199,0.465664 v 4.804796 c 0,0.254 0,0.698495 -0.99483,0.698495 v 0.296334 c 0.33867,0 0.80433,-0.02117 1.12183,-0.02117 0.3175,0 0.80433,0.02117 1.12183,0.02117 v -0.296334 c -0.99483,0 -0.99483,-0.444495 -0.99483,-0.698495 v -5.185793 h 0.0212 l 2.32831,5.968955 c 0.0423,0.127 0.0847,0.211667 0.16933,0.211667 0.10584,0 0.14817,-0.0635 0.1905,-0.169334 l 2.34949,-6.095955 v 5.52446 c 0,0.338664 0,0.444495 -0.74083,0.444495 h -0.23283 v 0.296334 c 0.35983,-0.02117 1.01599,-0.02117 1.39699,-0.02117 0.35984,0 0.99481,0 1.35464,0.02117 v -0.296334 h -0.23283 c -0.74081,0 -0.76197,-0.105831 -0.76197,-0.444495 v -5.058796 c 0,-0.359831 0.0212,-0.465664 0.76197,-0.465664 H 210.296 V 81.29564 h -1.60864 c -0.254,0 -0.254,0.02117 -0.3175,0.190498 l -2.11665,5.418627 z m 0,0 z"
       style="fill:#000000;fill-opacity:1;fill-rule:nonzero;stroke:none;stroke-width:0.26458332"
       inkscape:connector-curvature="0" />
    <path
       id="path964"
       d="m 212.81481,84.470617 v -2.476482 c 0,-0.232831 0,-0.359831 0.21166,-0.380997 0.0847,-0.02117 0.381,-0.02117 0.57148,-0.02117 0.86783,0 1.92616,0.04233 1.92616,1.439323 0,0.656161 -0.23283,1.439323 -1.651,1.439323 z m 2.03197,0.127 c 0.91017,-0.232834 1.67217,-0.825495 1.67217,-1.566323 0,-0.931325 -1.10067,-1.735654 -2.49767,-1.735654 h -3.02681 v 0.296331 h 0.23284 c 0.74083,0 0.762,0.105833 0.762,0.465664 v 5.058796 c 0,0.338664 -0.0212,0.444495 -0.762,0.444495 h -0.23284 v 0.296334 c 0.33867,-0.02117 1.03717,-0.02117 1.397,-0.02117 0.381,0 1.07948,0 1.41814,0.02117 v -0.296334 h -0.23283 c -0.74081,0 -0.76197,-0.105831 -0.76197,-0.444495 v -2.434148 h 1.10064 c 0.14816,0 0.55033,0 0.91016,0.338664 0.35984,0.317498 0.35984,0.634995 0.35984,1.26999 0,0.613828 0,1.015992 0.381,1.375823 0.40216,0.338664 0.93133,0.402164 1.2065,0.402164 0.76197,0 0.9313,-0.783162 0.9313,-1.058326 0,-0.04233 0,-0.148167 -0.127,-0.148167 -0.10583,0 -0.10583,0.08467 -0.127,0.148167 -0.0635,0.677328 -0.381,0.846662 -0.63497,0.846662 -0.46567,0 -0.52917,-0.486831 -0.67733,-1.375826 l -0.127,-0.761992 c -0.16934,-0.634997 -0.635,-0.952495 -1.16417,-1.121825 z m 0,0 z"
       style="fill:#000000;fill-opacity:1;fill-rule:nonzero;stroke:none;stroke-width:0.26458332"
       inkscape:connector-curvature="0" />
    <path
       id="path966"
       d="m 7.774809,21.860081 h -0.25399 c -0.10584,1.015992 -0.254,2.264816 -1.98966,2.264816 h -0.82549 c -0.46566,0 -0.48683,-0.04233 -0.48683,-0.380997 v -5.312794 c 0,-0.338664 0,-0.48683 0.95249,-0.48683 h 0.3175 v -0.317497 c -0.35983,0.04233 -1.26999,0.04233 -1.67215,0.04233 -0.381,0 -1.16416,0 -1.52399,-0.04233 v 0.317497 h 0.23283 c 0.78316,0 0.80433,0.105833 0.80433,0.465664 v 5.249294 c 0,0.359831 -0.0212,0.465663 -0.80433,0.465663 h -0.23283 v 0.317498 h 5.20696 z m 0,0 z"
       style="fill:#000000;fill-opacity:1;fill-rule:nonzero;stroke:none;stroke-width:0.26458332"
       inkscape:connector-curvature="0" />
    <path
       id="path968"
       d="m 9.319969,21.92358 c 0.0635,-1.481655 0.88899,-1.735654 1.24882,-1.735654 1.016,0 1.12183,1.354657 1.12183,1.735654 z m 0,0.232832 h 2.77281 c 0.21167,0 0.254,0 0.254,-0.232832 0,-0.973659 -0.55033,-1.947319 -1.77799,-1.947319 -1.16416,0 -2.09548,1.037159 -2.09548,2.285983 0,1.33349 1.05832,2.285983 2.20132,2.285983 1.20649,0 1.67215,-1.100658 1.67215,-1.291157 0,-0.08467 -0.0847,-0.126999 -0.14817,-0.126999 -0.0635,0 -0.10583,0.0635 -0.12699,0.148166 -0.33867,1.037159 -1.24883,1.037159 -1.33349,1.037159 -0.508,0 -0.889,-0.296331 -1.12183,-0.677329 -0.29633,-0.465663 -0.29633,-1.121825 -0.29633,-1.481655 z m 0,0 z"
       style="fill:#000000;fill-opacity:1;fill-rule:nonzero;stroke:none;stroke-width:0.26458332"
       inkscape:connector-curvature="0" />
    <path
       id="path970"
       d="m 14.378759,20.145593 v -1.142991 c 0,-0.888994 0.46567,-1.375823 0.91017,-1.375823 0.0212,0 0.19049,0 0.31749,0.08467 -0.10583,0.02117 -0.29633,0.169332 -0.29633,0.42333 0,0.211665 0.16933,0.42333 0.4445,0.42333 0.27516,0 0.44449,-0.211665 0.44449,-0.444497 0,-0.380997 -0.38099,-0.698494 -0.91015,-0.698494 -0.6985,0 -1.54516,0.529162 -1.54516,1.587488 v 1.142991 h -0.78316 v 0.317498 h 0.78316 v 3.238476 c 0,0.42333 -0.10583,0.42333 -0.76199,0.42333 v 0.317498 c 0.38099,0 0.84666,-0.02117 1.12182,-0.02117 0.40216,0 0.86783,0 1.26999,0.02117 v -0.317498 h -0.21166 c -0.74083,0 -0.74083,-0.105832 -0.74083,-0.465663 v -3.196143 h 1.12182 v -0.317498 z m 0,0 z"
       style="fill:#000000;fill-opacity:1;fill-rule:nonzero;stroke:none;stroke-width:0.26458332"
       inkscape:connector-curvature="0" />
    <path
       id="path972"
       d="m 17.405579,20.463091 h 1.41815 v -0.317498 h -1.41815 v -1.82032 h -0.254 c 0,0.804328 -0.29633,1.862653 -1.29116,1.926153 v 0.211665 h 0.84666 v 2.751646 c 0,1.227658 0.93133,1.33349 1.29116,1.33349 0.71966,0 0.99482,-0.698495 0.99482,-1.33349 v -0.571496 h -0.25399 v 0.55033 c 0,0.740828 -0.29633,1.121825 -0.67733,1.121825 -0.65616,0 -0.65616,-0.91016 -0.65616,-1.079492 z m 0,0 z"
       style="fill:#000000;fill-opacity:1;fill-rule:nonzero;stroke:none;stroke-width:0.26458332"
       inkscape:connector-curvature="0" />
    <path
       id="path974"
       d="m 22.295039,22.579742 v -0.571496 h -2.62465 v 0.571496 z m 0,0 z"
       style="fill:#000000;fill-opacity:1;fill-rule:nonzero;stroke:none;stroke-width:0.26458332"
       inkscape:connector-curvature="0" />
    <path
       id="path976"
       d="m 23.967189,23.701567 c 0,0.42333 -0.10583,0.42333 -0.78316,0.42333 v 0.317498 c 0.35984,0 0.86783,-0.02117 1.14299,-0.02117 0.254,0 0.762,0.02117 1.10066,0.02117 v -0.317498 c -0.65616,0 -0.76199,0 -0.76199,-0.42333 v -1.841486 c 0,-1.037159 0.6985,-1.608655 1.33349,-1.608655 0.63499,0 0.74083,0.529163 0.74083,1.121825 v 2.328316 c 0,0.42333 -0.10584,0.42333 -0.762,0.42333 v 0.317498 c 0.33867,0 0.84666,-0.02117 1.12183,-0.02117 0.254,0 0.78316,0.02117 1.10066,0.02117 v -0.317498 c -0.508,0 -0.762,0 -0.762,-0.296331 V 21.92358 c 0,-0.84666 0,-1.142991 -0.31749,-1.502822 -0.127,-0.169332 -0.46567,-0.380997 -1.03716,-0.380997 -0.84666,0 -1.29116,0.592662 -1.46049,0.994826 v -3.513641 l -1.43933,0.105833 v 0.317497 c 0.6985,0 0.78316,0.0635 0.78316,0.571496 z m 0,0 z"
       style="fill:#000000;fill-opacity:1;fill-rule:nonzero;stroke:none;stroke-width:0.26458332"
       inkscape:connector-curvature="0" />
    <path
       id="path978"
       d="m 31.714139,23.701567 c 0.0635,0.380997 0.31749,0.804327 0.78316,0.804327 0.23283,0 0.84666,-0.126999 0.84666,-0.952493 v -0.550329 h -0.254 v 0.550329 c 0,0.571496 -0.254,0.634996 -0.35983,0.634996 -0.33866,0 -0.381,-0.444497 -0.381,-0.48683 v -1.989652 c 0,-0.42333 0,-0.804327 -0.35983,-1.185325 -0.381,-0.402163 -0.88899,-0.550329 -1.35465,-0.550329 -0.8255,0 -1.52399,0.465664 -1.52399,1.121825 0,0.296331 0.21166,0.465663 0.46566,0.465663 0.29633,0 0.46566,-0.190498 0.46566,-0.444496 0,-0.126999 -0.0423,-0.444497 -0.52916,-0.444497 0.29633,-0.359831 0.78316,-0.48683 1.07949,-0.48683 0.508,0 1.07949,0.402164 1.07949,1.291158 v 0.35983 c -0.52916,0.02117 -1.20649,0.0635 -1.84148,0.359831 -0.74083,0.338664 -0.99483,0.867827 -0.99483,1.291157 0,0.825494 0.97366,1.058325 1.58749,1.058325 0.65616,0 1.12182,-0.402163 1.29116,-0.84666 z m -0.0423,-1.650988 v 1.015993 c 0,0.931326 -0.71966,1.26999 -1.18533,1.26999 -0.48683,0 -0.88899,-0.338664 -0.88899,-0.84666 0,-0.550329 0.42333,-1.375823 2.07432,-1.439323 z m 0,0 z"
       style="fill:#000000;fill-opacity:1;fill-rule:nonzero;stroke:none;stroke-width:0.26458332"
       inkscape:connector-curvature="0" />
    <path
       id="path980"
       d="m 34.486949,21.034587 v 2.66698 c 0,0.42333 -0.10583,0.42333 -0.78316,0.42333 v 0.317498 c 0.35983,0 0.86783,-0.02117 1.14299,-0.02117 0.254,0 0.762,0.02117 1.10066,0.02117 v -0.317498 c -0.65616,0 -0.762,0 -0.762,-0.42333 v -1.841486 c 0,-1.037159 0.6985,-1.608655 1.33349,-1.608655 0.635,0 0.74083,0.529163 0.74083,1.121825 v 2.328316 c 0,0.42333 -0.10583,0.42333 -0.76199,0.42333 v 0.317498 c 0.33866,0 0.84666,-0.02117 1.12182,-0.02117 0.254,0 0.78316,0.02117 1.10066,0.02117 v -0.317498 c -0.50799,0 -0.76199,0 -0.76199,-0.296331 V 21.92358 c 0,-0.84666 0,-1.142991 -0.3175,-1.502822 -0.127,-0.169332 -0.46566,-0.380997 -1.03716,-0.380997 -0.74083,0 -1.20649,0.42333 -1.48166,1.037159 v -1.037159 l -1.41815,0.105832 v 0.317498 c 0.69849,0 0.78316,0.0635 0.78316,0.571496 z m 0,0 z"
       style="fill:#000000;fill-opacity:1;fill-rule:nonzero;stroke:none;stroke-width:0.26458332"
       inkscape:connector-curvature="0" />
    <path
       id="path982"
       d="m 42.720719,23.892066 v 0.656161 l 1.46049,-0.105832 v -0.317498 c -0.67733,0 -0.78316,-0.04233 -0.78316,-0.550329 v -6.053622 l -1.41816,0.105833 v 0.317497 c 0.67733,0 0.762,0.0635 0.762,0.571496 v 2.158984 c -0.27517,-0.359831 -0.71966,-0.634995 -1.24883,-0.634995 -1.16415,0 -2.22248,0.994826 -2.22248,2.264816 0,1.269991 0.97366,2.24365 2.11665,2.24365 0.635,0 1.07949,-0.338664 1.33349,-0.656161 z m 0,-2.666981 v 2.053152 c 0,0.169332 0,0.190498 -0.127,0.35983 -0.29633,0.48683 -0.71966,0.698495 -1.16415,0.698495 -0.4445,0 -0.80433,-0.253998 -1.03717,-0.634995 -0.25399,-0.402164 -0.29633,-0.973659 -0.29633,-1.39699 0,-0.35983 0.0212,-0.952493 0.29633,-1.396989 0.23284,-0.317498 0.59267,-0.656162 1.143,-0.656162 0.35983,0 0.76199,0.169332 1.05832,0.592662 0.127,0.190499 0.127,0.190499 0.127,0.380997 z m 0,0 z"
       style="fill:#000000;fill-opacity:1;fill-rule:nonzero;stroke:none;stroke-width:0.26458332"
       inkscape:connector-curvature="0" />
    <path
       id="path984"
       d="m 45.578199,21.92358 c 0.0635,-1.481655 0.91016,-1.735654 1.24883,-1.735654 1.01599,0 1.12182,1.354657 1.12182,1.735654 z m 0,0.232832 h 2.77281 c 0.23284,0 0.254,0 0.254,-0.232832 0,-0.973659 -0.55033,-1.947319 -1.77798,-1.947319 -1.16416,0 -2.07432,1.037159 -2.07432,2.285983 0,1.33349 1.03716,2.285983 2.18015,2.285983 1.22766,0 1.67215,-1.100658 1.67215,-1.291157 0,-0.08467 -0.0635,-0.126999 -0.127,-0.126999 -0.0847,0 -0.127,0.0635 -0.127,0.148166 -0.35983,1.037159 -1.24882,1.037159 -1.35465,1.037159 -0.48683,0 -0.889,-0.296331 -1.12183,-0.677329 -0.29633,-0.465663 -0.29633,-1.121825 -0.29633,-1.481655 z m 0,0 z"
       style="fill:#000000;fill-opacity:1;fill-rule:nonzero;stroke:none;stroke-width:0.26458332"
       inkscape:connector-curvature="0" />
    <path
       id="path986"
       d="m 52.668979,23.892066 v 0.656161 l 1.48166,-0.105832 v -0.317498 c -0.6985,0 -0.78316,-0.04233 -0.78316,-0.550329 v -6.053622 l -1.41816,0.105833 v 0.317497 c 0.67733,0 0.762,0.0635 0.762,0.571496 v 2.158984 c -0.27517,-0.359831 -0.71967,-0.634995 -1.24883,-0.634995 -1.16416,0 -2.22248,0.994826 -2.22248,2.264816 0,1.269991 0.97366,2.24365 2.11665,2.24365 0.63499,0 1.07949,-0.338664 1.31232,-0.656161 z m 0,-2.666981 v 2.053152 c 0,0.169332 0,0.190498 -0.10583,0.35983 -0.29633,0.48683 -0.71966,0.698495 -1.16416,0.698495 -0.44449,0 -0.80432,-0.253998 -1.05832,-0.634995 -0.23284,-0.402164 -0.27517,-0.973659 -0.27517,-1.39699 0,-0.35983 0.0212,-0.952493 0.29633,-1.396989 0.23284,-0.317498 0.59267,-0.656162 1.14299,-0.656162 0.33867,0 0.762,0.169332 1.05833,0.592662 0.10583,0.190499 0.10583,0.190499 0.10583,0.380997 z m 0,0 z"
       style="fill:#000000;fill-opacity:1;fill-rule:nonzero;stroke:none;stroke-width:0.26458332"
       inkscape:connector-curvature="0" />
    <path
       id="path988"
       d="m 64.395229,17.690278 h -6.09596 l -0.19049,2.264817 h 0.25399 c 0.14817,-1.608655 0.27517,-1.947319 1.79916,-1.947319 0.16933,0 0.44449,0 0.52916,0.02117 0.21167,0.04233 0.21167,0.148165 0.21167,0.359831 v 5.270461 c 0,0.338664 0,0.465663 -1.03716,0.465663 h -0.40217 v 0.317497 c 0.40217,-0.02117 1.41816,-0.02117 1.88382,-0.02117 0.4445,0 1.48166,0 1.88382,0.02117 V 24.1249 h -0.40216 c -1.03716,0 -1.03716,-0.126999 -1.03716,-0.465663 v -5.270461 c 0,-0.169332 0,-0.317498 0.1905,-0.359831 0.10583,-0.02117 0.35983,-0.02117 0.55033,-0.02117 1.52399,0 1.65099,0.338664 1.79915,1.947319 h 0.254 z m 0,0 z"
       style="fill:#000000;fill-opacity:1;fill-rule:nonzero;stroke:none;stroke-width:0.26458332"
       inkscape:connector-curvature="0" />
    <path
       id="path990"
       d="m 70.745179,21.860081 h -0.254 c -0.10583,1.015992 -0.23283,2.264816 -1.98965,2.264816 h -0.82549 c -0.46567,0 -0.46567,-0.04233 -0.46567,-0.380997 v -5.312794 c 0,-0.338664 0,-0.48683 0.93133,-0.48683 h 0.3175 v -0.317497 c -0.35983,0.04233 -1.24883,0.04233 -1.67215,0.04233 -0.381,0 -1.16416,0 -1.50283,-0.04233 v 0.317497 h 0.23283 c 0.762,0 0.78317,0.105833 0.78317,0.465664 v 5.249294 c 0,0.359831 -0.0212,0.465663 -0.78317,0.465663 h -0.23283 v 0.317498 h 5.1858 z m 0,0 z"
       style="fill:#000000;fill-opacity:1;fill-rule:nonzero;stroke:none;stroke-width:0.26458332"
       inkscape:connector-curvature="0" />
    <path
       id="path992"
       d="m 147.81245,19.277766 v -2.518814 c 0,-0.232832 0,-0.359831 0.23283,-0.402164 0.0847,0 0.38099,0 0.57149,0 0.889,0 1.96849,0.04233 1.96849,1.460489 0,0.677329 -0.23283,1.460489 -1.67216,1.460489 z m 2.09548,0.127 c 0.93133,-0.232832 1.69332,-0.825494 1.69332,-1.587489 0,-0.952493 -1.12183,-1.777987 -2.53998,-1.777987 h -3.09031 v 0.317498 h 0.23283 c 0.76199,0 0.76199,0.105833 0.76199,0.444497 v 5.185795 c 0,0.338664 0,0.444496 -0.76199,0.444496 h -0.23283 v 0.317498 c 0.33866,-0.02117 1.05832,-0.02117 1.41816,-0.02117 0.38099,0 1.10065,0 1.43932,0.02117 v -0.317498 h -0.23283 c -0.762,0 -0.78316,-0.105832 -0.78316,-0.444496 v -2.476482 h 1.14299 c 0.14816,0 0.55033,0 0.91016,0.338664 0.38099,0.338664 0.38099,0.634996 0.38099,1.291157 0,0.634995 0,1.037159 0.381,1.418157 0.40217,0.338664 0.95249,0.402163 1.24882,0.402163 0.762,0 0.93133,-0.804327 0.93133,-1.079492 0,-0.0635 0,-0.169332 -0.127,-0.169332 -0.10583,0 -0.10583,0.105833 -0.127,0.169332 -0.0635,0.698495 -0.40216,0.867827 -0.63499,0.867827 -0.48683,0 -0.55033,-0.507996 -0.6985,-1.418156 l -0.12699,-0.783161 c -0.16934,-0.634995 -0.65617,-0.952493 -1.18533,-1.142991 z m 0,0 z"
       style="fill:#000000;fill-opacity:1;fill-rule:nonzero;stroke:none;stroke-width:0.26458332"
       inkscape:connector-curvature="0" />
    <path
       id="path994"
       d="m 154.58573,18.40994 -1.37582,0.105832 v 0.317498 c 0.63499,0 0.71966,0.0635 0.71966,0.529162 v 2.645814 c 0,0.42333 -0.10584,0.42333 -0.762,0.42333 v 0.317498 c 0.29633,-0.02117 0.84666,-0.02117 1.07949,-0.02117 0.35984,0 0.67733,0 1.016,0.02117 v -0.317498 c -0.65616,0 -0.67733,-0.04233 -0.67733,-0.42333 z m 0.0212,-1.714488 c 0,-0.296331 -0.23284,-0.507996 -0.508,-0.507996 -0.29633,0 -0.508,0.253998 -0.508,0.507996 0,0.275165 0.21167,0.529163 0.508,0.529163 0.27516,0 0.508,-0.211665 0.508,-0.529163 z m 0,0 z"
       style="fill:#000000;fill-opacity:1;fill-rule:nonzero;stroke:none;stroke-width:0.26458332"
       inkscape:connector-curvature="0" />
    <path
       id="path996"
       d="m 157.76071,21.055753 c -0.86783,0 -0.86783,-0.973659 -0.86783,-1.206491 0,-0.253998 0.0212,-0.571496 0.14816,-0.825494 0.0847,-0.105832 0.3175,-0.380997 0.71967,-0.380997 0.84666,0 0.84666,0.97366 0.84666,1.206491 0,0.253998 0,0.571496 -0.16934,0.825494 -0.0635,0.105833 -0.29633,0.380997 -0.67732,0.380997 z m -1.143,0.380997 c 0,-0.02117 0,-0.253998 0.14817,-0.465663 0.381,0.275165 0.80433,0.317498 0.99483,0.317498 0.88899,0 1.56632,-0.677328 1.56632,-1.439323 0,-0.359831 -0.14817,-0.719661 -0.381,-0.952493 0.33866,-0.338664 0.6985,-0.380997 0.86783,-0.380997 0.0212,0 0.0847,0 0.10583,0.02117 -0.10583,0.02117 -0.16933,0.126999 -0.16933,0.253998 0,0.169332 0.14816,0.275165 0.29633,0.275165 0.0847,0 0.27516,-0.0635 0.27516,-0.296331 0,-0.169332 -0.10583,-0.465664 -0.48683,-0.465664 -0.21166,0 -0.63499,0.0635 -1.05832,0.465664 -0.40217,-0.338664 -0.80433,-0.359831 -1.01599,-0.359831 -0.93133,0 -1.60866,0.677328 -1.60866,1.439323 0,0.42333 0.21167,0.78316 0.46566,1.015992 -0.127,0.126999 -0.31749,0.444497 -0.31749,0.804327 0,0.317498 0.14816,0.677329 0.44449,0.888994 -0.59266,0.148165 -0.91016,0.571496 -0.91016,0.952493 0,0.719661 0.97366,1.248824 2.18015,1.248824 1.14299,0 2.15899,-0.48683 2.15899,-1.248824 0,-0.338664 -0.10584,-0.84666 -0.61383,-1.121825 -0.52917,-0.275165 -1.10066,-0.275165 -1.69332,-0.275165 -0.254,0 -0.67733,0 -0.74083,-0.02117 -0.3175,-0.04233 -0.508,-0.338664 -0.508,-0.656162 z m 1.41816,3.111477 c -1.01599,0 -1.69332,-0.507996 -1.69332,-1.037159 0,-0.444496 0.381,-0.804327 0.80433,-0.825493 h 0.59266 c 0.84666,0 1.92615,0 1.92615,0.825493 0,0.55033 -0.67733,1.037159 -1.62982,1.037159 z m 0,0 z"
       style="fill:#000000;fill-opacity:1;fill-rule:nonzero;stroke:none;stroke-width:0.26458332"
       inkscape:connector-curvature="0" />
    <path
       id="path998"
       d="m 161.54951,22.008246 c 0,0.42333 -0.10583,0.42333 -0.762,0.42333 v 0.317498 c 0.33867,-0.02117 0.84667,-0.02117 1.12183,-0.02117 0.23283,0 0.74083,0 1.07949,0.02117 v -0.317498 c -0.65616,0 -0.76199,0 -0.76199,-0.42333 v -1.82032 c 0,-1.015992 0.69849,-1.566321 1.31232,-1.566321 0.635,0 0.74083,0.529162 0.74083,1.100658 v 2.285983 c 0,0.42333 -0.10583,0.42333 -0.76199,0.42333 v 0.317498 c 0.33866,-0.02117 0.84665,-0.02117 1.10065,-0.02117 0.254,0 0.78317,0 1.10066,0.02117 v -0.317498 c -0.50799,0 -0.76199,0 -0.76199,-0.275164 v -1.883819 c 0,-0.846661 0,-1.142992 -0.29633,-1.502823 -0.14817,-0.169332 -0.46567,-0.35983 -1.03716,-0.35983 -0.8255,0 -1.26999,0.592662 -1.43932,0.973659 v -3.450141 l -1.397,0.105832 v 0.317498 c 0.67734,0 0.762,0.0635 0.762,0.550329 z m 0,0 z"
       style="fill:#000000;fill-opacity:1;fill-rule:nonzero;stroke:none;stroke-width:0.26458332"
       inkscape:connector-curvature="0" />
    <path
       id="path1000"
       d="m 167.34913,18.83327 h 1.39699 v -0.317498 h -1.39699 v -1.799153 h -0.25399 c 0,0.804327 -0.29633,1.841486 -1.27,1.883819 v 0.232832 h 0.84667 v 2.709313 c 0,1.185325 0.91015,1.312324 1.26999,1.312324 0.69849,0 0.97366,-0.698495 0.97366,-1.312324 v -0.571496 h -0.254 v 0.55033 c 0,0.719661 -0.29633,1.079491 -0.65616,1.079491 -0.65617,0 -0.65617,-0.888993 -0.65617,-1.058325 z m 0,0 z"
       style="fill:#000000;fill-opacity:1;fill-rule:nonzero;stroke:none;stroke-width:0.26458332"
       inkscape:connector-curvature="0" />
    <path
       id="path1002"
       d="m 172.1751,20.907588 v -0.55033 h -2.60348 v 0.55033 z m 0,0 z"
       style="fill:#000000;fill-opacity:1;fill-rule:nonzero;stroke:none;stroke-width:0.26458332"
       inkscape:connector-curvature="0" />
    <path
       id="path1004"
       d="m 173.80492,22.008246 c 0,0.42333 -0.10583,0.42333 -0.762,0.42333 v 0.317498 c 0.35984,-0.02117 0.84667,-0.02117 1.12183,-0.02117 0.23283,0 0.74083,0 1.07949,0.02117 v -0.317498 c -0.65616,0 -0.76199,0 -0.76199,-0.42333 v -1.82032 c 0,-1.015992 0.71966,-1.566321 1.33349,-1.566321 0.61383,0 0.74082,0.529162 0.74082,1.100658 v 2.285983 c 0,0.42333 -0.12699,0.42333 -0.78316,0.42333 v 0.317498 c 0.33867,-0.02117 0.84666,-0.02117 1.10066,-0.02117 0.254,0 0.78316,0 1.10066,0.02117 v -0.317498 c -0.50799,0 -0.76199,0 -0.76199,-0.275164 v -1.883819 c 0,-0.846661 0,-1.142992 -0.29633,-1.502823 -0.14817,-0.169332 -0.46567,-0.35983 -1.03716,-0.35983 -0.8255,0 -1.24883,0.592662 -1.41816,0.973659 v -3.450141 l -1.41816,0.105832 v 0.317498 c 0.67733,0 0.762,0.0635 0.762,0.550329 z m 0,0 z"
       style="fill:#000000;fill-opacity:1;fill-rule:nonzero;stroke:none;stroke-width:0.26458332"
       inkscape:connector-curvature="0" />
    <path
       id="path1006"
       d="m 181.44603,22.008246 c 0.0423,0.380997 0.29633,0.804327 0.76199,0.804327 0.21167,0 0.8255,-0.148165 0.8255,-0.931326 v -0.571496 h -0.254 v 0.571496 c 0,0.550329 -0.254,0.613829 -0.35983,0.613829 -0.3175,0 -0.35983,-0.444497 -0.35983,-0.48683 v -1.947319 c 0,-0.42333 0,-0.804327 -0.35983,-1.164158 -0.381,-0.402163 -0.86783,-0.550329 -1.33349,-0.550329 -0.8255,0 -1.50282,0.465663 -1.50282,1.100659 0,0.296331 0.21166,0.465663 0.46566,0.465663 0.27516,0 0.44449,-0.190499 0.44449,-0.444497 0,-0.126999 -0.0423,-0.444497 -0.50799,-0.444497 0.27516,-0.35983 0.76199,-0.465663 1.05833,-0.465663 0.50799,0 1.05832,0.380997 1.05832,1.269991 v 0.35983 c -0.508,0.02117 -1.18532,0.0635 -1.79915,0.338664 -0.74083,0.338665 -0.99483,0.846661 -0.99483,1.291158 0,0.78316 0.95249,1.037159 1.56632,1.037159 0.65616,0 1.10066,-0.402164 1.29116,-0.846661 z m -0.0635,-1.608655 v 0.97366 c 0,0.931326 -0.71966,1.26999 -1.16416,1.26999 -0.46566,0 -0.86783,-0.338664 -0.86783,-0.825493 0,-0.55033 0.42333,-1.354657 2.03199,-1.418157 z m 0,0 z"
       style="fill:#000000;fill-opacity:1;fill-rule:nonzero;stroke:none;stroke-width:0.26458332"
       inkscape:connector-curvature="0" />
    <path
       id="path1008"
       d="m 184.15534,19.383599 v 2.624647 c 0,0.42333 -0.10583,0.42333 -0.76199,0.42333 v 0.317498 c 0.35983,-0.02117 0.84666,-0.02117 1.12182,-0.02117 0.254,0 0.762,0 1.10066,0.02117 v -0.317498 c -0.67733,0 -0.78316,0 -0.78316,-0.42333 v -1.82032 c 0,-1.015992 0.71966,-1.566321 1.33349,-1.566321 0.635,0 0.74083,0.529162 0.74083,1.100658 v 2.285983 c 0,0.42333 -0.10583,0.42333 -0.78316,0.42333 v 0.317498 c 0.33866,-0.02117 0.84666,-0.02117 1.12182,-0.02117 0.23284,0 0.762,0 1.07949,0.02117 v -0.317498 c -0.50799,0 -0.74082,0 -0.74082,-0.275164 v -1.883819 c 0,-0.846661 0,-1.142992 -0.3175,-1.502823 -0.127,-0.169332 -0.46566,-0.35983 -1.03716,-0.35983 -0.71966,0 -1.18532,0.42333 -1.46049,1.037159 V 18.40994 l -1.37582,0.105832 v 0.317498 c 0.69849,0 0.76199,0.0635 0.76199,0.550329 z m 0,0 z"
       style="fill:#000000;fill-opacity:1;fill-rule:nonzero;stroke:none;stroke-width:0.26458332"
       inkscape:connector-curvature="0" />
    <path
       id="path1010"
       d="m 192.26212,22.219911 v 0.634996 l 1.43932,-0.105833 v -0.317498 c -0.67733,0 -0.762,-0.04233 -0.762,-0.550329 v -5.947789 l -1.39699,0.105832 v 0.317498 c 0.67733,0 0.74083,0.0635 0.74083,0.550329 v 2.116651 c -0.27516,-0.35983 -0.69849,-0.613828 -1.22765,-0.613828 -1.143,0 -2.18016,0.973659 -2.18016,2.222483 0,1.248824 0.9525,2.222484 2.07432,2.222484 0.635,0 1.05833,-0.338665 1.31233,-0.634996 z m 0,-2.645813 v 2.010818 c 0,0.169332 0,0.190498 -0.10584,0.359831 -0.29633,0.486829 -0.71966,0.698494 -1.16415,0.698494 -0.4445,0 -0.80433,-0.253998 -1.03716,-0.634995 -0.23284,-0.402164 -0.27517,-0.952493 -0.27517,-1.375823 0,-0.338664 0.0212,-0.931326 0.29633,-1.375823 0.21167,-0.317498 0.59267,-0.634995 1.12183,-0.634995 0.33866,0 0.76199,0.148165 1.05832,0.592662 0.10584,0.169332 0.10584,0.190499 0.10584,0.359831 z m 0,0 z"
       style="fill:#000000;fill-opacity:1;fill-rule:nonzero;stroke:none;stroke-width:0.26458332"
       inkscape:connector-curvature="0" />
    <path
       id="path1012"
       d="m 195.07726,20.272593 c 0.0635,-1.46049 0.889,-1.714488 1.22766,-1.714488 0.99482,0 1.10066,1.33349 1.10066,1.714488 z m 0,0.211665 h 2.73048 c 0.23283,0 0.254,0 0.254,-0.211665 0,-0.97366 -0.52916,-1.926153 -1.75682,-1.926153 -1.14299,0 -2.05315,1.015992 -2.05315,2.24365 0,1.312324 1.03716,2.264817 2.15898,2.264817 1.20649,0 1.65099,-1.100659 1.65099,-1.269991 0,-0.105832 -0.0847,-0.126999 -0.14817,-0.126999 -0.0635,0 -0.10583,0.0635 -0.10583,0.126999 -0.33866,1.015992 -1.24882,1.015992 -1.33349,1.015992 -0.48683,0 -0.86783,-0.275164 -1.10066,-0.656161 -0.29633,-0.465663 -0.29633,-1.100659 -0.29633,-1.460489 z m 0,0 z"
       style="fill:#000000;fill-opacity:1;fill-rule:nonzero;stroke:none;stroke-width:0.26458332"
       inkscape:connector-curvature="0" />
    <path
       id="path1014"
       d="m 202.06221,22.219911 v 0.634996 l 1.46049,-0.105833 v -0.317498 c -0.67733,0 -0.78316,-0.04233 -0.78316,-0.550329 v -5.947789 l -1.39699,0.105832 v 0.317498 c 0.67733,0 0.76199,0.0635 0.76199,0.550329 v 2.116651 c -0.27516,-0.35983 -0.71966,-0.613828 -1.22766,-0.613828 -1.16415,0 -2.20131,0.973659 -2.20131,2.222483 0,1.248824 0.95249,2.222484 2.07432,2.222484 0.63499,0 1.07949,-0.338665 1.31232,-0.634996 z m 0,-2.645813 v 2.010818 c 0,0.169332 0,0.190498 -0.10583,0.359831 -0.29633,0.486829 -0.71966,0.698494 -1.143,0.698494 -0.44449,0 -0.80432,-0.253998 -1.03715,-0.634995 -0.254,-0.402164 -0.27517,-0.952493 -0.27517,-1.375823 0,-0.338664 0.0212,-0.931326 0.29633,-1.375823 0.21167,-0.317498 0.5715,-0.634995 1.12183,-0.634995 0.33866,0 0.74083,0.148165 1.03716,0.592662 0.10583,0.169332 0.10583,0.190499 0.10583,0.359831 z m 0,0 z"
       style="fill:#000000;fill-opacity:1;fill-rule:nonzero;stroke:none;stroke-width:0.26458332"
       inkscape:connector-curvature="0" />
    <path
       id="path1016"
       d="m 213.59795,16.10279 h -5.99012 l -0.19049,2.222483 h 0.23283 c 0.14816,-1.587488 0.29633,-1.904985 1.778,-1.904985 0.16933,0 0.42333,0 0.52914,0 0.21166,0.04233 0.21166,0.169332 0.21166,0.380997 v 5.185795 c 0,0.317497 0,0.444496 -1.03714,0.444496 h -0.40216 v 0.317498 c 0.40216,-0.02117 1.39697,-0.02117 1.86264,-0.02117 0.4445,0 1.4605,0 1.86266,0.02117 v -0.317498 h -0.40216 c -1.016,0 -1.016,-0.126999 -1.016,-0.444496 v -5.185795 c 0,-0.190499 0,-0.338664 0.16933,-0.380997 0.10583,0 0.381,0 0.55033,0 1.50284,0 1.651,0.317497 1.77798,1.904985 h 0.254 z m 0,0 z"
       style="fill:#000000;fill-opacity:1;fill-rule:nonzero;stroke:none;stroke-width:0.26458332"
       inkscape:connector-curvature="0" />
    <path
       id="path1018"
       d="m 219.84209,20.209093 h -0.23284 c -0.10583,0.994826 -0.254,2.222483 -1.9685,2.222483 h -0.8043 c -0.46567,0 -0.48684,-0.04233 -0.48684,-0.380997 v -5.228128 c 0,-0.338664 0,-0.465663 0.93131,-0.465663 h 0.3175 V 16.03929 c -0.33867,0.04233 -1.24881,0.04233 -1.62981,0.04233 -0.40216,0 -1.16416,0 -1.50283,-0.04233 v 0.317498 h 0.23283 c 0.762,0 0.78317,0.105833 0.78317,0.444497 v 5.185795 c 0,0.338664 -0.0212,0.444496 -0.78317,0.444496 h -0.23283 v 0.317498 h 5.10114 z m 0,0 z"
       style="fill:#000000;fill-opacity:1;fill-rule:nonzero;stroke:none;stroke-width:0.26458332"
       inkscape:connector-curvature="0" />
    <path
       id="path1020"
       d="m 186.18733,94.164879 c 4.00047,-10.117593 1.96848,9.778931 6.20179,-1.015993"
       style="fill:none;stroke:#000000;stroke-width:0.80432737px;stroke-linecap:round;stroke-linejoin:round;stroke-miterlimit:4;stroke-dasharray:none;stroke-opacity:1"
       inkscape:connector-curvature="0" />
    <path
       id="path1022"
       d="m -5.094421,65.082093 c 0.0635,-0.359831 0.10583,-0.486828 1.05832,-0.486828 0.29633,0 0.381,0 0.381,-0.1905 0,-0.126998 -0.127,-0.126998 -0.16933,-0.126998 -0.33867,0 -1.143,0.04233 -1.48166,0.04233 -0.29633,0 -1.03716,-0.04233 -1.35466,-0.04233 -0.0635,0 -0.19049,0 -0.19049,0.211664 0,0.105834 0.10583,0.105834 0.29633,0.105834 0.0212,0 0.21166,0 0.38099,0.02117 0.16934,0.04233 0.254,0.04233 0.254,0.169331 0,0.04233 0,0.0635 -0.0212,0.1905 l -1.35465,5.418627 c -0.10584,0.380995 -0.10584,0.465662 -0.93133,0.465662 -0.16933,0 -0.254,0 -0.254,0.211666 0,0.105831 0.0847,0.105831 0.254,0.105831 h 4.6778 c 0.254,0 0.254,0 0.3175,-0.169331 l 0.80432,-2.180151 c 0.0212,-0.127 0.0212,-0.127 0.0212,-0.148166 0,-0.04233 -0.0212,-0.105831 -0.10583,-0.105831 -0.0847,0 -0.10583,0.0635 -0.16933,0.211664 -0.35983,0.931325 -0.80433,2.074318 -2.53998,2.074318 h -0.93133 -0.23283 c -0.10583,-0.02117 -0.14817,-0.02117 -0.14817,-0.105831 0,-0.04233 0,-0.04233 0.0635,-0.232833 z m 0,0 z"
       style="fill:#000000;fill-opacity:1;fill-rule:nonzero;stroke:none;stroke-width:0.26458332"
       inkscape:connector-curvature="0" />
    <path
       id="path1024"
       d="m -1.178621,71.728379 c 0.0635,0.444497 0.29633005,1.037158 0.88899005,1.037158 0.23284,0 0.48683,-0.08467 0.74083,-0.253997 0.127,-0.0635 0.48683,-0.338664 0.48683,-0.402164 0,-0.0635 -0.0423,-0.127 -0.10583,-0.127 -0.0423,0 -0.0635,0 -0.16933,0.08467 -0.29633,0.275164 -0.61383,0.507994 -0.93133,0.507994 -0.48683,0 -0.48683,-0.825492 -0.48683,-0.952492 0,-0.105833 0,-0.105833 0.0212,-0.253997 0,-0.0635 0,-0.0635 0.0847,-0.148167 0.381,-0.35983 1.71448995,-1.650987 1.71448995,-2.878645 0,-0.105831 0,-0.613828 -0.46565995,-0.613828 -0.59266,0 -1.05833,0.910158 -1.16416,1.121825 -0.29633,0.592661 -0.48683005,1.164159 -0.55033005,1.523989 -0.10583,0.486829 -0.10583,0.719662 -0.10583,1.058326 -0.0423,0.0635 -0.4445,0.423328 -0.508,0.465661 -0.127,0.105834 -0.127,0.105834 -0.127,0.148167 0,0.0635 0.0635,0.127 0.127,0.127 0.0423,0 0.23283,-0.169333 0.27517,-0.211667 z m 0.50800005,-0.804328 c 0.127,-0.719662 0.67733,-2.984479 1.26999,-2.984479 0.16933,0 0.254,0.105833 0.254,0.35983 0,0.08467 0,0.698495 -0.61383,1.566323 -0.35983,0.507997 -0.74083,0.888995 -0.91016,1.058326 z m 0,0 z"
       style="fill:#000000;fill-opacity:1;fill-rule:nonzero;stroke:none;stroke-width:0.26458332"
       inkscape:connector-curvature="0" />
    <path
       id="path1026"
       d="m 36.688269,99.329508 c -0.0847,-0.169333 -0.127,-0.211666 -0.3175,-0.211666 -0.1905,0 -0.23283,0.04233 -0.29633,0.211666 l -3.97931,7.937442 c -0.0423,0.10583 -0.0423,0.127 -0.0423,0.14816 0,0.0847 0.0635,0.0847 0.254,0.0847 h 8.12794 c 0.1905,0 0.27517,0 0.27517,-0.0847 0,-0.0212 0,-0.0423 -0.0635,-0.14816 z m -0.6985,0.952492 3.17498,6.34995 h -6.32879 z m 0,0 z"
       style="fill:#000000;fill-opacity:1;fill-rule:nonzero;stroke:none;stroke-width:0.26458332"
       inkscape:connector-curvature="0" />
    <path
       id="path1028"
       d="m 45.176039,103.96497 c 0.0635,-0.29633 0.33866,-1.37582 1.16416,-1.37582 0.0423,0 0.33866,0 0.57149,0.14817 -0.3175,0.0635 -0.55033,0.33866 -0.55033,0.63499 0,0.1905 0.127,0.40216 0.4445,0.40216 0.254,0 0.635,-0.21166 0.635,-0.67732 0,-0.61383 -0.67733,-0.78317 -1.10066,-0.78317 -0.67733,0 -1.07949,0.635 -1.22766,0.889 -0.29633,-0.762 -0.91016,-0.889 -1.26999,-0.889 -1.20649,0 -1.88382,1.52399 -1.88382,1.79916 0,0.14816 0.127,0.14816 0.14816,0.14816 0.0847,0 0.127,-0.0423 0.14817,-0.14816 0.40216,-1.24882 1.16416,-1.52399 1.58749,-1.52399 0.21166,0 0.61383,0.10583 0.61383,0.78316 0,0.35983 -0.21167,1.14299 -0.61383,2.79398 -0.1905,0.71966 -0.61383,1.20649 -1.12183,1.20649 -0.0847,0 -0.33866,0 -0.59266,-0.14817 0.29633,-0.0635 0.55033,-0.31749 0.55033,-0.63499 0,-0.3175 -0.254,-0.40216 -0.42333,-0.40216 -0.35983,0 -0.635,0.29633 -0.635,0.67732 0,0.52917 0.55033,0.762 1.0795,0.762 0.78316,0 1.20649,-0.82549 1.22766,-0.86783 0.14816,0.42333 0.57149,0.86783 1.26999,0.86783 1.20649,0 1.86265,-1.50282 1.86265,-1.79915 0,-0.127 -0.0847,-0.127 -0.127,-0.127 -0.10583,0 -0.127,0.0635 -0.16933,0.127 -0.381,1.26999 -1.16416,1.54515 -1.54516,1.54515 -0.4445,0 -0.63499,-0.35983 -0.63499,-0.76199 0,-0.254 0.0635,-0.52916 0.19049,-1.03716 z m 0,0 z"
       style="fill:#000000;fill-opacity:1;fill-rule:nonzero;stroke:none;stroke-width:0.26458332"
       inkscape:connector-curvature="0" />
  </g>
</svg>
